<?xml version="1.0" standalone="no"?><svg xmlns="http://www.w3.org/2000/svg" viewBox="0 0 1440 320"><path fill="#0099ff" fill-opacity="1" d="M0,128L24,144C48,160,96,192,144,218.7C192,245,240,267,288,261.3C336,256,384,224,432,181.3C480,139,528,85,576,96C624,107,672,181,720,186.7C768,192,816,128,864,133.3C912,139,960,213,1008,208C1056,203,1104,117,1152,74.7C1200,32,1248,32,1296,64C1344,96,1392,160,1416,192L1440,224L1440,320L1416,320C1392,320,1344,320,1296,320C1248,320,1200,320,1152,320C1104,320,1056,320,1008,320C960,320,912,320,864,320C816,320,768,320,720,320C672,320,624,320,576,320C528,320,480,320,432,320C384,320,336,320,288,320C240,320,192,320,144,320C96,320,48,320,24,320L0,320Z"></path></svg>